# xmcd
#
# Track frame offsets:
#	225
#	815
#	19155
#	20465
#	44985
#	46070
#	62305
#	71497
#	85892
#	100695
#	104840
#	119550
#	120435
#	132770
#	133422
#	143100
#
# Disc length: 2227 seconds
#
# Revision: 0
# Processed by: cddbd v1.5.2PL0 Copyright (c) Steve Scherf et al.
# Submitted via: audiograbber 1.83.01
#
DISCID=d908b010
DTITLE=John Hartford - No End To Love
DYEAR=2008
DGENRE=Country
TTITLE0=Dialog
TTITLE1=No End Of Love
TTITLE2=Dialog
TTITLE3=When The Guiding Star Came To Tell City
TTITLE4=Dialog
TTITLE5=Gentle On My Mind
TTITLE6=Railroad Cap
TTITLE7=Down On The Levee
TTITLE8=My Tears Don't Show
TTITLE9=Dialog
TTITLE10=Burning Of Grand Republic
TTITLE11=Dialog
TTITLE12=Uncle Dink
TTITLE13=Dialog
TTITLE14=Medicine Chest
TTITLE15=Goodbye Waltz
EXTD=Rereleased 4/8/2008
EXTT0=
EXTT1=
EXTT2=
EXTT3=
EXTT4=
EXTT5=
EXTT6=
EXTT7=
EXTT8=
EXTT9=
EXTT10=
EXTT11=
EXTT12=
EXTT13=
EXTT14=
EXTT15=
PLAYORDER=
